Coordinates
version=1
nRows=14
nColumns=24
inDegrees=yes

Units are S.I. units (second, meters, Newtons, ...)
Angles are in degrees.

endheader
time	pelvis_tilt	pelvis_list	pelvis_rotation	pelvis_tx	pelvis_ty	pelvis_tz	hip_flexion_r	hip_adduction_r	hip_rotation_r	knee_angle_r	ankle_angle_r	subtalar_angle_r	mtp_angle_r	hip_flexion_l	hip_adduction_l	hip_rotation_l	knee_angle_l	ankle_angle_l	subtalar_angle_l	mtp_angle_l	lumbar_extension	lumbar_bending	lumbar_rotation
      5.49000000	     -3.23476396	     -0.68904356	     -4.09897078	      0.24084117	      0.70708741	      0.14033261	     30.04197868	      3.72062496	     -0.24652027	    -55.01679106	     10.22132336	    -10.30277681	      0.00000000	     -3.11169746	      5.72243918	     24.75759258	     -0.22531123	     -1.88469664	    -37.43952892	      0.00000000	    -12.93948215	     -2.25460827	     -2.12646909
      5.50000000	     -3.37416805	     -0.77358382	     -3.29959313	      0.25330749	      0.70656500	      0.14059368	     31.09055162	      3.65773495	     -0.50673063	    -51.53107684	     10.10140741	    -11.67327924	      0.00000000	     -4.27685005	      5.62987569	     24.78862818	      0.20828709	     -1.67276718	    -37.59430021	      0.00000000	    -13.15519436	     -2.10668829	     -2.99320842
      5.51000000	     -3.35304893	     -0.79656099	     -2.47576893	      0.26585166	      0.70596509	      0.14092694	     31.68846481	      3.49949974	     -0.68876239	    -47.55002549	     10.07177591	    -12.59325853	      0.00000000	     -5.64198563	      5.55512035	     24.95113195	      0.66703576	     -1.43614941	    -37.70818396	      0.00000000	    -13.57129707	     -2.06710948	     -3.88277969
      5.52000000	     -3.12776111	     -0.78007936	     -1.67469172	      0.27856788	      0.70532642	      0.14132367	     31.77364068	      3.26714438	     -0.87364229	    -43.07085965	     10.22720636	    -13.04041486	      0.00000000	     -7.26885355	      5.47405545	     25.15241566	      1.16004658	     -1.14881599	    -37.77209389	      0.00000000	    -14.22357247	     -2.10100210	     -4.67161102
      5.53000000	     -2.96567043	     -0.65866291	     -0.91624126	      0.29139430	      0.70439223	      0.14172521	     31.64531535	      2.95637770	     -0.84673119	    -38.15228694	     10.49807465	    -12.91563357	      0.00000000	     -8.79052680	      5.47997584	     25.30464995	      1.54862430	     -0.84324456	    -37.69589963	      0.00000000	    -14.76573032	     -2.22746401	     -5.46563277
      5.54000000	     -2.79011085	     -0.45733344	     -0.14256649	      0.30442799	      0.70325288	      0.14210276	     31.20128940	      2.55194101	     -0.74221278	    -32.80112057	     10.80174235	    -12.47277165	      0.00000000	    -10.30933021	      5.51226408	     25.59590780	      1.84564006	     -0.46521127	    -37.43910985	      0.00000000	    -15.28347050	     -2.43347461	     -6.26142710
      5.55000000	     -2.48713201	     -0.20999596	      0.57613259	      0.31777207	      0.70205223	      0.14244857	     30.32561011	      2.11030253	     -0.50796558	    -27.08099570	     11.05545456	    -11.75930557	      0.00000000	    -11.97182371	      5.55040164	     25.88134608	      2.07962468	     -0.04882025	    -36.99132781	      0.00000000	    -15.87915228	     -2.65671728	     -7.02526610
      5.56000000	     -2.36040995	      0.14565038	      1.40043107	      0.33137685	      0.70040213	      0.14268634	     29.41371890	      1.48842533	     -0.32910342	    -21.16136470	     11.25664571	    -10.93385276	      0.00000000	    -13.39812356	      5.61136747	     26.55203080	      2.15943513	      0.42085589	    -36.42300732	      0.00000000	    -16.22234937	     -3.00285243	     -7.87101762
      5.57000000	     -2.13920561	      0.57467112	      2.21747902	      0.34534736	      0.69862883	      0.14274270	     28.22677404	      0.74882365	     -0.24143244	    -15.21208504	     11.35977997	     -9.91553226	      0.00000000	    -14.90314182	      5.70853969	     27.38075010	      2.09698464	      0.96729370	    -35.72761776	      0.00000000	    -16.56983463	     -3.35226570	     -8.68658676
      5.58000000	     -1.98855597	      1.14037232	      3.05551895	      0.35960740	      0.69656652	      0.14270257	     27.05449839	     -0.16394932	     -0.47310684	     -9.53230923	     11.43660230	     -8.63569149	      0.00000000	    -16.29584213	      5.90031882	     28.39510736	      1.88095178	      1.46974764	    -34.94519453	      0.00000000	    -16.77011082	     -3.84405222	     -9.53908096
      5.59000000	     -1.77454145	      1.70799174	      3.85285158	      0.37424208	      0.69445862	      0.14268063	     25.81459190	     -1.03726239	     -1.21954002	     -4.36676970	     11.61856358	     -6.83771175	      0.00000000	    -17.74672872	      6.04634822	     29.43195551	      1.56546853	      1.99995118	    -33.98549339	      0.00000000	    -16.98157334	     -4.31217328	    -10.32167573
      5.60000000	     -1.41203778	      2.24016122	      4.47783879	      0.38916019	      0.69246327	      0.14288900	     24.57946682	     -1.71984043	     -2.57163400	     -0.07084403	     12.20474530	     -4.04379949	      0.00000000	    -19.33608062	      6.14424717	     30.26160601	      1.16127579	      2.64324005	    -32.68817799	      0.00000000	    -17.33317964	     -4.75788299	    -10.79854009
      5.61000000	     -1.48392981	      2.85525437	      5.08931532	      0.40421828	      0.69003034	      0.14313031	     23.86021510	     -2.44540050	     -3.04987989	      3.45646921	     12.24511472	     -2.55883469	      0.00000000	    -20.36639172	      6.37030140	     31.20692685	      0.56036348	      2.83131385	    -31.72513685	      0.00000000	    -17.13952135	     -5.34355023	    -11.43573559
      5.62000000	     -1.07057644	      3.02878783	      5.50312608	      0.42004536	      0.68823886	      0.14361010	     22.75240234	     -2.52981755	     -4.06583214	      6.00758709	     12.63800806	     -0.56154928	      0.00000000	    -21.95829601	      6.12391222	     31.23395397	      0.05107949	      3.59034938	    -29.71888470	      0.00000000	    -17.32055650	     -5.35507097	    -11.69586270
